<svg width="90" height="87" viewBox="0 0 90 87" fill="none" xmlns="http://www.w3.org/2000/svg">
<g clip-path="url(#clip0_254_455)">
<path d="M4.19635 3.70898H85.7809V83.0685H4.19635V3.70898Z" fill="#2E001E"/>
<path d="M0.486816 0V86.775H89.4868V0H0.486816ZM4.19634 3.70952H85.7809V83.069H4.19634V3.70952Z" fill="#FF2BC2"/>
<path d="M65.1222 36.4548C64.5668 36.1949 63.8619 36.0846 62.9719 36.0846C58.2977 36.0846 55.1827 39.6802 55.1827 45.6539C55.1827 52.4784 58.3724 55.2231 62.5269 55.2231C63.4169 55.2231 64.3817 55.1128 65.0866 54.8137V36.4548H65.1222ZM48.5112 45.9458C48.5112 37.3057 54.0755 30.5559 63.1962 30.5559C63.9759 30.5559 64.3817 30.5559 65.1257 30.6307V20.9902C65.1257 20.7695 65.3109 20.6199 65.496 20.6199H71.4661C71.7616 20.6199 71.8363 20.7303 71.8363 20.9154V54.8102C71.8363 55.8105 71.8363 57.0708 72.0215 58.4449C72.0215 58.7048 72.0215 58.7404 71.7972 58.8543C68.6822 60.3389 65.4177 61.0046 62.3027 61.0046C54.2571 61.001 48.5112 56.0348 48.5112 45.9458ZM35.8661 39.9401L46.2506 60.0754C46.4357 60.3709 46.3254 60.6699 46.0263 60.6699H39.5721C39.1627 60.6699 38.9775 60.5596 38.7924 60.1893C36.4179 55.2943 34.0078 50.2142 31.5229 44.949H31.4481C29.2231 49.9187 26.7774 55.3335 24.4029 60.2285C24.2178 60.524 24.0327 60.6379 23.7336 60.6379H17.5819C17.2117 60.6379 17.1725 60.3424 17.3577 60.1181L27.5179 40.5737L17.6923 21.1433C17.468 20.8478 17.6923 20.5879 17.9522 20.5879H24.3317C24.7019 20.5879 24.8871 20.6627 25.001 20.9973C27.3363 25.9279 29.7109 30.7873 31.9359 35.7571H32.0106C34.1609 30.8621 36.5354 25.9315 38.796 21.0721C38.9811 20.7766 39.0915 20.5915 39.4653 20.5915H45.4354C45.7309 20.5915 45.8448 20.8157 45.6597 21.1468L35.8661 39.9401Z" fill="#FF2BC2"/>
</g>
<defs>
<clipPath id="clip0_254_455">
<rect width="89" height="86.775" fill="white" transform="translate(0.486816)"/>
</clipPath>
</defs>
</svg>
